<svg height="480pt" viewBox="-72 0 480 480.2749" width="480pt" xmlns="http://www.w3.org/2000/svg"><path d="m88.136719 296.273438h96l-64 176-32-40-64 24zm0 0" fill="#a5181d"/><path d="m216.136719 472.273438 32-40 64 24-64-160h-96zm0 0" fill="#dc2027"/><path d="m328.136719 168.273438c0 88.367187-71.632813 160-160 160-88.363281 0-160-71.632813-160-160 0-88.363282 71.636719-160 160-160 88.367187 0 160 71.636718 160 160zm0 0" fill="#fb9e55"/><path d="m296.136719 168.273438c0 70.695312-57.308594 128-128 128-70.691407 0-128-57.304688-128-128 0-70.691407 57.308593-128 128-128 70.691406 0 128 57.308593 128 128zm0 0" fill="#fdd020"/><path d="m336.136719 168.273438c.132812-80.949219-57.480469-150.484376-137.046875-165.398438s-158.453125 29.035156-187.648438 104.539062c-29.191406 75.503907-.390625 161.089844 68.511719 203.582032l-63.128906 142.03125c-1.3125 2.945312-.726563 6.390625 1.484375 8.738281 2.210937 2.347656 5.617187 3.140625 8.636718 2.003906l58.566407-21.964843 28.378906 35.46875c1.515625 1.898437 3.816406 3.003906 6.246094 3 .390625 0 .78125-.03125 1.167969-.085938 2.820312-.414062 5.207031-2.296875 6.265624-4.945312l40.566407-101.421876 40.570312 101.421876c1.054688 2.648437 3.441407 4.53125 6.261719 4.945312.386719.054688.777344.085938 1.167969.085938 2.429687.003906 4.730469-1.101563 6.25-3l28.375-35.46875 58.566406 21.964843c3.019531 1.136719 6.425781.34375 8.636719-2.003906 2.210937-2.347656 2.796875-5.792969 1.484375-8.738281l-63.128907-142.03125c49.546876-30.523438 79.746094-84.527344 79.816407-142.722656zm-218.328125 288.28125-23.421875-29.28125c-2.164063-2.703126-5.816407-3.707032-9.058594-2.496094l-46.125 17.304687 54.789063-123.289062c22.394531 11.121093 47 17.058593 72 17.371093l-5.183594 12.957032zm179.265625-14.472657-46.128907-17.304687c-3.242187-1.210938-6.894531-.207032-9.054687 2.496094l-23.425781 29.28125-41.710938-104.28125 6.710938-16.796876c20.46875-1.890624 40.410156-7.554687 58.816406-16.707031zm-128.9375-121.808593c-83.945313 0-152-68.050782-152-152 0-83.945313 68.054687-152 152-152 83.949219 0 152 68.054687 152 152-.09375 83.910156-68.089844 151.910156-152 152zm0 0"/><path d="m168.136719 32.273438c-75.109375 0-136 60.890624-136 136 0 75.113281 60.890625 136 136 136s136-60.886719 136-136c-.082031-75.074219-60.921875-135.914063-136-136zm0 256c-66.273438 0-120-53.722657-120-120 0-66.273438 53.726562-120 120-120 66.273437 0 120 53.726562 120 120-.074219 66.246093-53.757813 119.925781-120 120zm0 0"/></svg>