<?xml version="1.0"?>
<svg xmlns="http://www.w3.org/2000/svg" id="Layer_1" data-name="Layer 1" viewBox="0 0 512 512" width="512" height="512"><title>Delivery Security 3</title><path d="M496,394.76v51.57a14.508,14.508,0,0,1-14.51,14.51H470.06a25.4,25.4,0,0,0-50.8,0H401.5V394.76Z" style="fill:#f8ec7d"/><path d="M458.61,354.02,496,394.76H401.5V349.32h46.42A14.5,14.5,0,0,1,458.61,354.02Z" style="fill:#6fe3ff"/><path d="M444.66,435.45a25.4,25.4,0,1,1-25.4,25.39A25.4,25.4,0,0,1,444.66,435.45Z" style="fill:#6fe3ff"/><path d="M401.5,394.76v66.08H324.21a25.4,25.4,0,0,0-50.8,0H255.27a14.51,14.51,0,0,1-14.52-14.51V325.15a14.519,14.519,0,0,1,14.52-14.52H386.99a14.51,14.51,0,0,1,14.51,14.52v69.61Z" style="fill:#af593c"/><path d="M378.18,114.69V273.97a128.786,128.786,0,0,1-4.85,33.89v2.77H325.9v-2.6c4.91-12.13,7.78-24.69,7.78-36.12V144.12L197.09,77.04,60.5,143.93V271.91c0,30.29,20.39,68.96,45.53,86.11l91.06,62.1,43.66-29.78v54.92h-.73l-42.93,29.28L79.71,394.48C43.39,369.72,16,317.91,16,273.97V114.46l181.11-88.7Z" style="fill:#e48e66"/><path d="M333.68,144.12V271.91c0,11.43-2.87,23.99-7.78,36.12v2.6H255.27a14.519,14.519,0,0,0-14.52,14.52v65.19l-43.66,29.78-91.06-62.1C80.89,340.87,60.5,302.2,60.5,271.91V143.93L197.09,77.04Z" style="fill:#f8ec7d"/><path d="M298.81,435.45a25.4,25.4,0,1,1-25.4,25.39A25.4,25.4,0,0,1,298.81,435.45Z" style="fill:#6fe3ff"/><path d="M182.782,283.36a6.978,6.978,0,0,1-5.147-2.255L145.6,246.366a7,7,0,1,1,10.291-9.491l27.31,29.611,55.517-50.848a7,7,0,1,1,9.455,10.324l-60.66,55.56A6.976,6.976,0,0,1,182.782,283.36Z" style="fill:#e48e66"/></svg>
